<?xml version="1.0" encoding="utf-8"?>
<!-- Generator: Adobe Illustrator 23.0.3, SVG Export Plug-In . SVG Version: 6.00 Build 0)  -->
<svg version="1.1" id="图层_1" xmlns="http://www.w3.org/2000/svg" xmlns:xlink="http://www.w3.org/1999/xlink" x="0px" y="0px"
	 viewBox="0 0 411.31 187.19" style="enable-background:new 0 0 411.31 187.19;" xml:space="preserve">
<g>
	<path d="M143.6,89.9c-0.4,0-0.9-0.6-1.4-1.75c-0.6-1.15-0.85-1.95-0.85-2.45c0-0.2,0.05-0.45,0.2-0.75c-0.3-1.2-0.8-2.95-1.4-5.3
		c-2.65-0.75-5.75-1.15-9.35-1.15c-1.75,0-4.2,0.2-7.4,0.5c-0.6,2.9-0.85,5.1-0.85,6.5c0,0.55,0.05,1.15,0.15,1.8
		c-0.3,0.8-0.8,1.2-1.45,1.2c-1.3,0-1.9-0.95-1.9-2.75c0.1-0.75,0.25-1.75,0.45-3.05c0.1-0.7,0.3-1.85,0.6-3.4
		c-1.2,0.2-2.65,0.45-4.3,0.65c-1.1,0-1.6-0.45-1.6-1.45c0-0.9,0.6-1.4,1.85-1.6c0.7-0.1,2.25-0.3,4.65-0.55
		c1.4-6.15,3.95-13.85,7.7-23.05c0.9-2.35,1.7-3.55,2.4-3.55c0.9,0,1.8,1.15,2.75,3.35c5.25,12.6,8.95,23.75,11.1,33.55
		c0.2,1.1,0.35,1.75,0.35,1.95C145.3,89.45,144.7,89.9,143.6,89.9z M136.65,68.25c-1.95-5.7-3.8-10.3-5.5-13.8
		c-2.95,7.2-5.3,14.35-7.1,21.55c3.35-0.3,5.7-0.45,7.05-0.45c2.5,0,5.2,0.3,8.15,0.85C138.35,73.4,137.45,70.7,136.65,68.25z"/>
	<path d="M155,73.7c-1.15,4.7-1.7,8.35-1.7,10.95c0.65,0.7,1,1.5,1,2.3c0,0.7-0.35,1.05-0.95,1.05c-0.8,0-1.5-0.65-2.15-1.9
		c-0.5-1-0.75-2.25-0.75-3.85c0-1.3,0.65-5.35,2.05-12.25c-0.1-0.6-0.15-1-0.15-1.15c0-0.45,0.25-0.85,0.75-1.15
		c1.85,0.1,2.8,1,2.8,2.6C155.65,71.3,155.35,72.4,155,73.7z M156.95,54.45c-1.95-0.35-2.9-1.4-2.9-3.15c0-0.3-0.05-0.6-0.05-0.95
		c0.1-1.1,0.8-1.85,2.1-2.3c1.65,0.2,2.5,1.3,2.5,3.4C158.6,53.35,158.05,54.35,156.95,54.45z"/>
	<path d="M178.65,70.6c-0.9,0.4-1.55,0.6-2.05,0.6c-0.1,0-0.4-0.1-1-0.3c-4.3,2-6.9,6.15-7.7,12.55c-0.45,3.35-1,5.05-1.65,5.05
		c-0.55,0-1-0.35-1.4-0.95s-0.6-1.15-0.6-1.85c0.1-0.5,0.3-1.35,0.55-2.6c0.25-1.5,0.4-2.9,0.4-4.2c0-1.45-0.2-2.9-0.5-4.35
		c-0.6-0.6-0.9-1.3-1-2c-0.25-1.35-0.35-2.45-0.35-3.25c0-0.3,0.1-0.65,0.35-1.05c0.2-0.4,0.4-0.6,0.65-0.6
		c1.1,0,1.85,0.95,2.25,2.75c0.4,1.9,0.7,3.3,0.9,4.3c1.2-2.25,2.75-4.15,4.75-5.7c1.9-1.5,3.85-2.25,5.85-2.25
		c0.5,0,1,0.25,1.5,0.75c0.4,0.5,0.6,1.05,0.65,1.6C180.25,69.65,179.7,70.15,178.65,70.6z"/>
</g>
</svg>
