<?xml version="1.0" encoding="utf-8"?>
<!-- Generator: Adobe Illustrator 23.0.3, SVG Export Plug-In . SVG Version: 6.00 Build 0)  -->
<svg version="1.1" id="shape3" xmlns="http://www.w3.org/2000/svg" xmlns:xlink="http://www.w3.org/1999/xlink" x="0px" y="0px"
	 viewBox="0 0 194.4 182.8" style="enable-background:new 0 0 194.4 182.8;" xml:space="preserve">
<path d="M63.54,69.51c-0.9,2.15-2.3,3.8-4.2,4.95c-1.9,1.1-3.95,1.65-6.25,1.65c-3.4,0-6.1-1.15-8.05-3.55
	c-1.9-2.2-2.8-5.15-2.8-8.8c0-4,2.2-9.95,6.65-17.8c-2.4,1.3-3.75,1.9-3.95,1.9c-1.05,0-1.55-0.5-1.55-1.55
	c0-0.75,0.95-1.6,2.85-2.6c4.9-2.45,9.45-3.7,13.6-3.8c1.3,0,2.4,0.3,3.25,0.9c0.5,0.3,0.75,0.8,0.75,1.45
	c0,0.9-0.55,1.35-1.55,1.35c-0.3,0-0.7-0.05-1.15-0.25c-0.5-0.15-0.85-0.25-1.15-0.25c-2.4,0-5.5,0.65-9.25,1.95
	c0.4,0.95,0.65,1.7,0.65,2.2c0,0.4-0.3,1.1-0.8,2.1c-0.4,0.7-0.75,1.4-1.15,2.1c-0.6,1.2-1.65,3.6-3.2,7.2
	c5.6-1.55,10.1-2.65,13.6-3.3c1.2-0.2,2.05-0.3,2.5-0.3c1,0,1.5,0.5,1.5,1.45c0,0.75-0.55,1.5-1.6,2.25c-1.1,0.8-1.8,1.2-2.2,1.2
	c-0.8,0-1.45-0.3-1.95-0.95c-2.2,0.45-4.95,1.1-8.25,1.9c-2,0.5-3.5,0.95-4.5,1.35c-0.1,0.75-0.15,1.45-0.15,2.05
	c0,2.6,0.7,4.7,2.1,6.25c1.4,1.6,3.35,2.35,5.85,2.35c1.75,0,3.2-0.35,4.3-1.15c0.8-0.6,1.75-1.65,2.95-3.25
	c0.75-1.1,1.4-1.65,1.95-1.65c1,0,1.5,0.55,1.5,1.65C63.84,68.81,63.74,69.11,63.54,69.51z"/>
<path d="M85.84,64.71c-0.75,2.1-1.1,4.35-1.1,6.65c0,0.85,0.05,1.7,0.25,2.5c0.3,1.5,0.5,2.25,0.5,2.35c0,0.95-0.55,1.45-1.6,1.45
	c-1,0-1.55-0.85-1.7-2.45c-0.1-0.85-0.25-2.2-0.45-4.05c-2.75,3.3-5.4,4.95-7.95,4.95c-1.35,0-2.5-0.6-3.45-1.9
	c-0.95-1.1-1.4-2.4-1.4-3.85c0-2.3,1-4.7,3.1-7.3c0.4-0.5,1.15-1.3,2.2-2.3c3.3-3,6.05-4.5,8.35-4.5c0.5,0,1.05,0.25,1.6,0.65
	c0.5,0.45,0.8,0.95,0.8,1.5c0,0.1-0.05,0.35-0.15,0.7c0.4,1,0.6,2.15,0.6,3.4c0.4,0.5,0.6,0.95,0.6,1.3
	C86.04,64.01,85.94,64.31,85.84,64.71z M81.29,59.76c-0.65,0-1.7,0.55-3.1,1.6c-1.3,0.95-2.35,1.9-3.15,2.85
	c-2.1,2.35-3.1,4.35-3.1,6c0,1.75,0.65,2.6,2.05,2.6c1.9,0,3.75-1.15,5.65-3.55c1.9-2.4,2.9-4.65,2.9-6.85
	C82.54,60.66,82.09,59.76,81.29,59.76z"/>
<path d="M107.09,59.41c-0.9,0.4-1.55,0.6-2.05,0.6c-0.1,0-0.4-0.1-1-0.3c-4.3,2-6.9,6.15-7.7,12.55c-0.45,3.35-1,5.05-1.65,5.05
	c-0.55,0-1-0.35-1.4-0.95c-0.4-0.6-0.6-1.15-0.6-1.85c0.1-0.5,0.3-1.35,0.55-2.6c0.25-1.5,0.4-2.9,0.4-4.2c0-1.45-0.2-2.9-0.5-4.35
	c-0.6-0.6-0.9-1.3-1-2c-0.25-1.35-0.35-2.45-0.35-3.25c0-0.3,0.1-0.65,0.35-1.05c0.2-0.4,0.4-0.6,0.65-0.6
	c1.1,0,1.85,0.95,2.25,2.75c0.4,1.9,0.7,3.3,0.9,4.3c1.2-2.25,2.75-4.15,4.75-5.7c1.9-1.5,3.85-2.25,5.85-2.25
	c0.5,0,1,0.25,1.5,0.75c0.4,0.5,0.6,1.05,0.65,1.6C108.69,58.46,108.14,58.96,107.09,59.41z"/>
<path d="M125.69,59.86h-0.7c-0.45-0.1-0.85-0.3-1.15-0.7c-0.5,0-1.5,0-3.1-0.05c-1.65,0-2.65-0.05-2.95-0.05
	c-1.15,5.05-1.75,7.7-1.75,7.95c-0.6,3.05-0.95,5.75-0.95,8.1c0.45,0.4,0.7,0.85,0.7,1.5c0,0.4-0.2,0.75-0.55,1.05
	c-0.4,0.3-0.75,0.5-1.1,0.5c-1.3,0-1.9-1.25-1.9-3.65c0-1.55,0.3-3.95,0.95-7.25l1.6-8.1c-1.6,0-2.4-0.55-2.4-1.75
	c0-1.05,1.05-1.6,3.15-1.6c0.65-2.95,1.8-7.3,3.4-13.1c0.25-0.85,0.7-1.3,1.3-1.3c1.1,0,1.65,0.6,1.65,1.75c0,0.25-0.1,0.6-0.3,1.05
	c-0.3,0.7-0.65,1.95-1.05,3.7c-0.8,3.1-1.45,5.7-1.9,7.85c0.15,0,0.85,0,2.05,0c1.2,0.05,1.95,0.05,2.35,0.05
	c2.5,0,3.75,0.75,3.75,2.15C126.79,58.56,126.39,59.16,125.69,59.86z"/>
<path d="M146.29,77.41c-1.65,0-2.55-1.8-2.65-5.3l-0.35-8.85c-4.75,3.2-7.9,6.3-9.5,9.35c-0.4,0.8-0.75,1.55-1.05,2.3
	c-0.55,1.2-0.95,1.85-1.2,1.85c-0.6,0-1.1-0.25-1.55-0.75s-0.65-1-0.65-1.55c0-0.1,0-0.4,0.1-0.9c0-0.5,0.05-0.8,0.05-0.9
	c0-0.1,0-0.55,0-1.25c-0.05-0.6-0.05-1.05-0.05-1.25c0-3.4,0.35-7.5,1.1-12.25c0-0.3,0.65-4.1,1.95-11.35l0.95-5.6
	c0.2-1.1,0.35-1.75,0.45-2c0.15-0.4,0.4-0.65,0.75-0.65c0.5,0,1,0.3,1.4,0.85c0.4,0.6,0.6,1.2,0.6,1.8c0,0.15-0.25,1.45-0.7,3.9
	c-2,10-3.25,17.95-3.85,23.9c1.6-1.95,3.7-4,6.3-6.15c2.95-2.4,4.95-3.6,5.95-3.6c0.6,0,1.1,0.3,1.55,0.85c0.4,0.6,0.6,1.2,0.6,1.9
	c0,0.35-0.05,1.05-0.15,2.1c-0.1,1.1-0.1,1.95-0.1,2.5c0,1.55,0.1,3.85,0.4,6.95c0.1,0.8,0.2,1.85,0.4,3.2
	C147.04,77.11,146.79,77.41,146.29,77.41z"/>
</svg>
