<?xml version="1.0" encoding="utf-8"?>
<!-- Generator: Adobe Illustrator 23.0.3, SVG Export Plug-In . SVG Version: 6.00 Build 0)  -->
<svg version="1.1" id="path" xmlns="http://www.w3.org/2000/svg" xmlns:xlink="http://www.w3.org/1999/xlink" x="0px" y="0px"
	 viewBox="0 0 14 11.72" style="enable-background:new 0 0 14 11.72;" xml:space="preserve">
<style type="text/css">
	.st0{fill:#FFFFFF;}
</style>
<polygon id="q" points="2.06,8.72 6.48,1.31 10.9,8.72 "/>
<g id="o">
	<path class="st0" d="M8.89,5.66c0,0-1.08,1.08-2.41,1.08S4.07,5.66,4.07,5.66s1.08-1.08,2.41-1.08S8.89,5.66,8.89,5.66z"/>
</g>
<g id="p">
	<path d="M6.48,6.21c-0.31,0-0.56-0.25-0.56-0.56c0-0.31,0.25-0.55,0.56-0.55c0.31,0,0.56,0.25,0.56,0.55
		C7.04,5.96,6.79,6.21,6.48,6.21z"/>
	<path d="M6.48,5.6c0.03,0,0.06,0.02,0.06,0.06S6.51,5.71,6.48,5.71S6.43,5.69,6.43,5.66S6.45,5.6,6.48,5.6 M6.48,4.6
		c-0.58,0-1.06,0.47-1.06,1.06c0,0.58,0.47,1.06,1.06,1.06c0.58,0,1.06-0.47,1.06-1.06C7.54,5.08,7.06,4.6,6.48,4.6L6.48,4.6z"/>
</g>
</svg>
