<svg xmlns="http://www.w3.org/2000/svg" viewBox="0 0 194.4 182.8">
  <path d="M76.59 62.66c-.35 0-.7-.05-1.1-.15-5.1.15-9.45.4-13.05.7-1.4 4.45-2.5 9.2-3.3 14.2 5-.25 9.55-1.05 13.75-2.45l1.35-.4c.8.1 1.2.6 1.3 1.5-.05.9-.75 1.6-2.1 2.05-4.7 1.6-9.6 2.4-14.7 2.4-.45 3.6-.65 6.3-.65 8.05 0 1.25.15 4.05.5 8.35-.15.75-.65 1.2-1.55 1.4-.55 0-.95-.3-1.15-.8-1-2.1-1.55-5.05-1.65-9.05.05-.35.4-.75 1.05-1.2.3-7.1 1.6-14.95 3.85-23.5-1.8-.2-2.7-.7-2.7-1.5 0-.7.35-1.25 1.15-1.55.5-.2 1.35-.35 2.5-.45.35-.3.8-.5 1.3-.6 0 0 .35.1 1.05.25.15 0 2.2-.1 6.15-.35 3.85-.2 5.85-.3 6.05-.3 2.15 0 3.25.6 3.25 1.75-.2.9-.6 1.45-1.3 1.65zM87.04 81.51c-1.15 4.7-1.7 8.35-1.7 10.95.65.7 1 1.5 1 2.3 0 .7-.35 1.05-.95 1.05-.8 0-1.5-.65-2.15-1.9-.5-1-.75-2.25-.75-3.85 0-1.3.65-5.35 2.05-12.25-.1-.6-.15-1-.15-1.15 0-.45.25-.85.75-1.15 1.85.1 2.8 1 2.8 2.6-.25 1-.55 2.1-.9 3.4zm1.95-19.25c-1.95-.35-2.9-1.4-2.9-3.15 0-.3-.05-.6-.05-.95.1-1.1.8-1.85 2.1-2.3 1.65.2 2.5 1.3 2.5 3.4 0 1.9-.55 2.9-1.65 3zM110.69 78.41c-.9.4-1.55.6-2.05.6-.1 0-.4-.1-1-.3-4.3 2-6.9 6.15-7.7 12.55-.45 3.35-1 5.05-1.65 5.05-.55 0-1-.35-1.4-.95-.4-.6-.6-1.15-.6-1.85.1-.5.3-1.35.55-2.6.25-1.5.4-2.9.4-4.2 0-1.45-.2-2.9-.5-4.35-.6-.6-.9-1.3-1-2-.25-1.35-.35-2.45-.35-3.25 0-.3.1-.65.35-1.05.2-.4.4-.6.65-.6 1.1 0 1.85.95 2.25 2.75.4 1.9.7 3.3.9 4.3 1.2-2.25 2.75-4.15 4.75-5.7 1.9-1.5 3.85-2.25 5.85-2.25.5 0 1 .25 1.5.75.4.5.6 1.05.65 1.6 0 .55-.55 1.05-1.6 1.5zM128.64 96.11c-3.9 0-6.7-1.85-8.4-5.55-.4.1-.9.15-1.4.15-1.75 0-3.15-.3-4.15-.95-1.25-.7-1.85-1.45-1.85-2.25 0-1.1.5-1.65 1.5-1.65.15 0 .65.3 1.5.9.85.55 1.7.8 2.55.8.3 0 .65 0 .95-.05-.15-.8-.2-1.55-.2-2.3 0-2.4.6-4.75 1.8-7 1.35-2.55 3.05-3.85 5.1-3.85 1.25 0 2.5.7 3.8 2 .9 1 1.4 2.15 1.4 3.45 0 2-.85 3.9-2.5 5.8-1.5 1.75-3.35 3.1-5.55 4.05 1 2.1 2.55 3.15 4.75 3.15.45 0 1.15-.05 2.1-.25.9-.1 1.45-.15 1.7-.15.4 0 .7.2 1 .55.3.4.45.75.45 1.15 0 1.3-1.55 2-4.55 2zm-1.15-17.7c-.55-.45-1.1-.7-1.65-.7-1 0-1.85.8-2.55 2.3s-1.05 3.1-1.05 4.7c0 .6.05 1.3.15 2 1.6-.7 3-1.65 4.15-2.9 1.15-1.15 1.75-2.4 1.75-3.75 0-.6-.3-1.15-.8-1.65z"/>
</svg>
