<?xml version="1.0" encoding="utf-8"?>
<!-- Generator: Adobe Illustrator 23.0.3, SVG Export Plug-In . SVG Version: 6.00 Build 0)  -->
<svg version="1.1" id="图层_1" xmlns="http://www.w3.org/2000/svg" xmlns:xlink="http://www.w3.org/1999/xlink" x="0px" y="0px"
	 viewBox="0 0 411.31 187.19" style="enable-background:new 0 0 411.31 187.19;" xml:space="preserve">
<g>
	<path d="M159.5,73.1c-0.85,2.8-2.2,6.6-4,11.35c-1.3,3.2-2.6,6.35-3.8,9.5c-0.5,1.25-0.8,2-0.95,2.3c-0.45,0.8-0.95,1.15-1.55,1.15
		c-0.75,0-1.55-0.75-2.35-2.25c-2.2-3.7-4.45-7.6-6.7-11.7c-1.45,2.5-3.5,6.05-6.15,10.75c-1.25,2.2-2.3,3.25-3.1,3.25
		s-1.6-0.9-2.4-2.7c-2.55-5.5-3.8-11.9-3.8-19.3c0-1.8,0.1-5.05,0.35-9.65c-1-0.35-1.5-0.95-1.5-1.75c0-1.55,0.45-3.85,1.4-6.85
		c0.2-0.7,0.6-1.1,1.1-1.1c0.8,0,1.3,0.6,1.5,1.7c0.3,1.75,0.45,3.35,0.45,4.8c0,1.55-0.1,3.8-0.25,6.8c-0.1,3.05-0.15,5.3-0.15,6.8
		c0,7.8,1.3,13.25,3.9,16.4c0.3-0.45,1.5-2.4,3.6-5.9c0.8-1.5,2.2-3.8,4.1-6.95c0.35-0.6,0.8-0.95,1.3-0.95
		c0.45,0,0.85,0.35,1.25,1.05c2.2,4.5,4.6,9,7.25,13.45c1.65-4.25,3.35-8.5,5.05-12.75c1.9-5,3.2-9.4,3.95-13.15
		c0.2-1.2,0.75-1.8,1.55-1.8c0.8,0,1.2,0.55,1.2,1.55C160.75,68.35,160.3,70.35,159.5,73.1z"/>
	<path d="M181.75,86.9c-0.75,2.1-1.1,4.35-1.1,6.65c0,0.85,0.05,1.7,0.25,2.5c0.3,1.5,0.5,2.25,0.5,2.35c0,0.95-0.55,1.45-1.6,1.45
		c-1,0-1.55-0.85-1.7-2.45c-0.1-0.85-0.25-2.2-0.45-4.05c-2.75,3.3-5.4,4.95-7.95,4.95c-1.35,0-2.5-0.6-3.45-1.9
		c-0.95-1.1-1.4-2.4-1.4-3.85c0-2.3,1-4.7,3.1-7.3c0.4-0.5,1.15-1.3,2.2-2.3c3.3-3,6.05-4.5,8.35-4.5c0.5,0,1.05,0.25,1.6,0.65
		c0.5,0.45,0.8,0.95,0.8,1.5c0,0.1-0.05,0.35-0.15,0.7c0.4,1,0.6,2.15,0.6,3.4c0.4,0.5,0.6,0.95,0.6,1.3
		C181.95,86.2,181.85,86.5,181.75,86.9z M177.2,81.95c-0.65,0-1.7,0.55-3.1,1.6c-1.3,0.95-2.35,1.9-3.15,2.85
		c-2.1,2.35-3.1,4.35-3.1,6c0,1.75,0.65,2.6,2.05,2.6c1.9,0,3.75-1.15,5.65-3.55c1.9-2.4,2.9-4.65,2.9-6.85
		C178.45,82.85,178,81.95,177.2,81.95z"/>
	<path d="M202.05,82.05h-0.7c-0.45-0.1-0.85-0.3-1.15-0.7c-0.5,0-1.5,0-3.1-0.05c-1.65,0-2.65-0.05-2.95-0.05
		c-1.15,5.05-1.75,7.7-1.75,7.95c-0.6,3.05-0.95,5.75-0.95,8.1c0.45,0.4,0.7,0.85,0.7,1.5c0,0.4-0.2,0.75-0.55,1.05
		c-0.4,0.3-0.75,0.5-1.1,0.5c-1.3,0-1.9-1.25-1.9-3.65c0-1.55,0.3-3.95,0.95-7.25l1.6-8.1c-1.6,0-2.4-0.55-2.4-1.75
		c0-1.05,1.05-1.6,3.15-1.6c0.65-2.95,1.8-7.3,3.4-13.1c0.25-0.85,0.7-1.3,1.3-1.3c1.1,0,1.65,0.6,1.65,1.75
		c0,0.25-0.1,0.6-0.3,1.05c-0.3,0.7-0.65,1.95-1.05,3.7c-0.8,3.1-1.45,5.7-1.9,7.85c0.15,0,0.85,0,2.05,0C198.25,78,199,78,199.4,78
		c2.5,0,3.75,0.75,3.75,2.15C203.15,80.75,202.75,81.35,202.05,82.05z"/>
	<path d="M220.05,99.3c-3.9,0-6.7-1.85-8.4-5.55c-0.4,0.1-0.9,0.15-1.4,0.15c-1.75,0-3.15-0.3-4.15-0.95
		c-1.25-0.7-1.85-1.45-1.85-2.25c0-1.1,0.5-1.65,1.5-1.65c0.15,0,0.65,0.3,1.5,0.9c0.85,0.55,1.7,0.8,2.55,0.8
		c0.3,0,0.65,0,0.95-0.05c-0.15-0.8-0.2-1.55-0.2-2.3c0-2.4,0.6-4.75,1.8-7c1.35-2.55,3.05-3.85,5.1-3.85c1.25,0,2.5,0.7,3.8,2
		c0.9,1,1.4,2.15,1.4,3.45c0,2-0.85,3.9-2.5,5.8c-1.5,1.75-3.35,3.1-5.55,4.05c1,2.1,2.55,3.15,4.75,3.15c0.45,0,1.15-0.05,2.1-0.25
		c0.9-0.1,1.45-0.15,1.7-0.15c0.4,0,0.7,0.2,1,0.55c0.3,0.4,0.45,0.75,0.45,1.15C224.6,98.6,223.05,99.3,220.05,99.3z M218.9,81.6
		c-0.55-0.45-1.1-0.7-1.65-0.7c-1,0-1.85,0.8-2.55,2.3c-0.7,1.5-1.05,3.1-1.05,4.7c0,0.6,0.05,1.3,0.15,2c1.6-0.7,3-1.65,4.15-2.9
		c1.15-1.15,1.75-2.4,1.75-3.75C219.7,82.65,219.4,82.1,218.9,81.6z"/>
	<path d="M244.3,81.6c-0.9,0.4-1.55,0.6-2.05,0.6c-0.1,0-0.4-0.1-1-0.3c-4.3,2-6.9,6.15-7.7,12.55c-0.45,3.35-1,5.05-1.65,5.05
		c-0.55,0-1-0.35-1.4-0.95c-0.4-0.6-0.6-1.15-0.6-1.85c0.1-0.5,0.3-1.35,0.55-2.6c0.25-1.5,0.4-2.9,0.4-4.2c0-1.45-0.2-2.9-0.5-4.35
		c-0.6-0.6-0.9-1.3-1-2C229.1,82.2,229,81.1,229,80.3c0-0.3,0.1-0.65,0.35-1.05c0.2-0.4,0.4-0.6,0.65-0.6c1.1,0,1.85,0.95,2.25,2.75
		c0.4,1.9,0.7,3.3,0.9,4.3c1.2-2.25,2.75-4.15,4.75-5.7c1.9-1.5,3.85-2.25,5.85-2.25c0.5,0,1,0.25,1.5,0.75
		c0.4,0.5,0.6,1.05,0.65,1.6C245.9,80.65,245.35,81.15,244.3,81.6z"/>
</g>
</svg>
